<svg width="80" height="80" viewBox="0 0 80 80" fill="none" xmlns="http://www.w3.org/2000/svg">
<path d="M6.4 38.0588C7.05068 38.1121 7.424 37.5679 7.476 36.9253L7.53468 36.2014L5.652 36.0479C5.61868 36.3454 5.58932 36.5986 5.572 36.8067C5.49868 37.7121 5.90132 38.0186 6.4 38.0588ZM68.4332 29.4959C68.8732 30.6799 70.1255 31.1547 71.3 30.7187C72.4745 30.2827 73.1068 29.0879 72.6681 27.9039C72.2294 26.72 70.9761 26.2467 69.8013 26.6827C68.6267 27.1187 68 28.3133 68.4332 29.4959ZM30.0932 69.6161C29.9439 70.1307 30.2655 70.5561 31.1106 70.8013L32.3761 71.1679L32.8613 69.4946L31.5187 69.104C30.7868 68.8906 30.2587 69.0493 30.0932 69.6161ZM29.6932 72.2827C29.5532 72.7627 29.8507 73.1708 30.54 73.3706L31.6481 73.6919L32.1187 72.0707L31.0894 71.7706C30.4 71.5759 29.8532 71.7121 29.6868 72.2879L29.6932 72.2827ZM46.9413 8.94265L46.3361 6.26667L44.8094 8.544C45.1668 8.59865 45.5239 8.65867 45.8761 8.72533C46.2281 8.792 46.5868 8.864 46.9413 8.94265ZM8.436 43.9759L6.12 45.4506L8.78668 46.1173C8.71733 45.7618 8.65377 45.4063 8.596 45.0506C8.53333 44.6946 8.48132 44.3348 8.436 43.9759ZM30.6668 11.22C31.8668 10.8307 32.4 9.59865 32 8.408C31.6 7.21732 30.4468 6.54133 29.2455 6.92533C28.0439 7.30933 27.5119 8.54532 27.9119 9.73732C28.3119 10.9293 29.4668 11.6107 30.6668 11.22ZM23.9707 67.0066C23.64 67.5707 23.8747 68.1199 24.6027 68.5481L25.432 69.0361L26.4987 67.228L25.6533 66.7306C24.944 66.312 24.34 66.3881 23.976 67.0066H23.9707ZM72.4668 43.5746C71.2507 43.36 70.0839 44.0681 69.8639 45.308C69.6439 46.5481 70.4855 47.5933 71.7187 47.812C72.952 48.0306 74.1026 47.3186 74.3213 46.0787C74.54 44.8386 73.7013 43.7921 72.4668 43.5746ZM38.8507 28.232H45.3519C45.1868 26.9828 44.7081 25.7373 43.9333 24.8C42.4426 22.9493 40.3332 22.6413 38.9468 22.6413H35.2361V56.2066H38.8507V43.68H43.5681V56.1934H47.6561V50.3627C47.6561 42.6107 45.1761 38.3788 38.8039 38.3788V36.5054H38.8455C41.2306 36.5054 42.92 35.3121 43.9468 34.0267C45.1145 32.6095 45.36 31.2733 45.4132 30.0813H38.8532L38.8507 28.232ZM40 0C17.908 0 0 17.908 0 40C0 62.0919 17.908 80 40 80C62.0919 80 80 62.0919 80 40C80 17.908 62.0919 0 40 0ZM75.2945 34.8681L72.6439 35.1161H72.6293C72.7174 35.716 72.7919 36.3161 72.8481 36.924C72.9039 37.5319 72.9439 38.1333 72.9681 38.7399H72.9839L75.6145 38.4932L75.6681 39.6093L69.3894 40.1986L69.3613 39.0786L71.9532 38.836H71.9787C71.9561 38.2307 71.9161 37.6228 71.86 37.0201C71.8039 36.4174 71.7268 35.812 71.6387 35.2135H71.6133L69.02 35.4561L68.8413 34.3506L75.1161 33.7626L75.2945 34.8681ZM73.6361 27.564C74.3161 29.3947 73.4026 31.1865 71.7081 31.8159C70.0132 32.4453 68.1455 31.6665 67.4655 29.8361C66.7855 28.0054 67.6987 26.2133 69.3932 25.584C71.0881 24.9547 72.9561 25.7333 73.6361 27.564ZM68.9333 19.136L66.7239 20.5867L67.0774 21.12L70.4694 21.504L71.1533 22.6133L67.2961 22.0653L66.6294 24.1307C66.4013 24.8573 66.4026 25.356 66.7519 25.6587L65.94 26.1921C65.1868 25.556 65.2732 24.6307 65.6226 23.6733L66.2774 21.7893L65.8574 21.148L63.66 22.5893L63.0039 21.684L68.2574 18.2347L68.9333 19.136ZM58.5561 15.3787L59.6707 15.532C59.5958 15.8892 59.6171 16.2599 59.7322 16.6063C59.847 16.9526 60.0517 17.2624 60.3255 17.504C61.1332 18.2387 62.2561 18.2213 63.0826 17.612C62.6132 17.1307 62.1281 16.66 61.6306 16.2093C61.4306 16.0267 61.2307 15.8453 61.0213 15.668L61.6707 14.9173C61.88 15.0987 62.0919 15.2867 62.2987 15.4733C62.7945 15.9253 63.28 16.3933 63.7494 16.8747C64.2826 15.992 64.1839 14.9 63.38 14.1693C63.119 13.9274 62.8005 13.756 62.4548 13.6713C62.1091 13.5866 61.7473 13.5915 61.4039 13.6853L61.1574 12.5707C61.6717 12.4646 62.2039 12.4844 62.7088 12.6284C63.2135 12.7723 63.6764 13.0361 64.0574 13.3973C65.5026 14.7107 65.5161 16.748 64.3132 18.072C63.1106 19.396 61.0945 19.5893 59.6468 18.276C59.2403 17.9203 58.9278 17.4697 58.7371 16.9643C58.5468 16.4588 58.4842 15.9142 58.5545 15.3787H58.5561ZM53.5545 10.428C53.6678 10.2026 53.8452 10.0158 54.0644 9.89134C54.2839 9.76689 54.5353 9.7104 54.7868 9.72898C55.0382 9.74757 55.2787 9.84044 55.4771 9.99578C55.6758 10.1511 55.8239 10.362 55.9026 10.6016C55.9813 10.8412 55.987 11.0987 55.9192 11.3416C55.8512 11.5845 55.7127 11.8018 55.5213 11.9659C55.3299 12.1299 55.0938 12.2334 54.8434 12.2632C54.593 12.2931 54.3395 12.2478 54.1145 12.1333C53.8145 11.9811 53.587 11.7162 53.4818 11.3966C53.3766 11.077 53.4023 10.7287 53.5532 10.428H53.5545ZM52.7894 51.0667V58.2667H30.1226V20.7693H38.0626C38.1374 20.7693 38.1961 20.7693 38.2545 20.7693H40.1787C43.9813 20.7693 45.5719 21.436 47.3787 22.8267C49.9974 24.88 50.4106 27.8599 50.4106 29.352C50.4106 31.2026 49.8455 33.156 48.4574 34.748C47.7319 35.6173 46.6255 36.7627 44.8081 37.5107C50.5681 39.5506 52.7894 44.1786 52.7894 51.0667ZM46.0907 4.86133L47.1081 5.05199L48.6826 11.944L47.5026 11.608L47.1655 10.016C46.6787 9.89999 46.1855 9.79467 45.6987 9.70268C45.2119 9.61067 44.7132 9.53067 44.2187 9.46133L43.312 10.824L42.1239 10.7133L46.0907 4.86133ZM34.7574 10.08C34.8777 10.1068 35.001 10.1158 35.1239 10.1067C35.7668 10.0587 36.3332 9.60533 36.0455 5.81067L36.0252 5.55733L35.9506 4.568L36.1093 4.54933L38.5093 4.36665C39.1094 4.34133 39.7094 4.33067 40.3106 4.33468L40.3868 5.328L40.7868 10.5693L39.6732 10.6547L39.2732 5.33465C38.6468 5.34933 38.0187 5.37999 37.3961 5.42799L37.0761 5.45465L37.1239 6.05735C37.4306 10.088 36.7587 10.9493 35.5093 11.044C35.2496 11.0579 34.9891 11.0445 34.7319 11.004L34.7574 10.08ZM28.96 5.94667C30.8174 5.344 32.5706 6.33067 33.1293 8.04935C33.6881 9.768 32.8319 11.6027 30.9745 12.2067C29.1174 12.8107 27.3655 11.8227 26.8068 10.104C26.2481 8.38532 27.1 6.54667 28.9561 5.94265L28.96 5.94667ZM20.096 10.4253L21.4667 12.676L22.0187 12.3387L22.512 8.96267L23.6427 8.31467L22.976 12.152L25.0187 12.8827C25.7373 13.136 26.2361 13.1493 26.5494 12.8093L27.0561 13.6387C26.3974 14.372 25.4734 14.2547 24.5227 13.8747L22.656 13.16L22.0013 13.56L23.3707 15.8013L22.4453 16.428L19.176 11.0667L20.096 10.4253ZM11.1293 19.092L15.1707 22.5587C15.648 21.8813 16.1511 21.2249 16.68 20.5893L12.6667 17.1227C12.9049 16.8373 13.1484 16.5555 13.3973 16.2773L17.4093 19.744C17.9693 19.1218 18.5551 18.5209 19.1667 17.9413L15.1253 14.4747C15.392 14.2142 15.6618 13.9591 15.9347 13.7093L19.9773 17.2L20.768 17.884C18.6613 19.7153 16.8264 21.8375 15.3187 24.1867L14.5333 23.5067L10.4853 20C10.6951 19.6969 10.9084 19.3947 11.1253 19.0933L11.1293 19.092ZM8.64932 27.4374C8.74319 27.2036 8.90426 27.003 9.11216 26.8608C9.32005 26.7187 9.56543 26.6413 9.81727 26.6387C10.0691 26.6359 10.3161 26.7081 10.527 26.8456C10.7379 26.9833 10.9032 27.1806 11.0021 27.412C11.1009 27.6438 11.1289 27.8995 11.0824 28.1471C11.0358 28.3946 10.917 28.6227 10.7408 28.8026C10.5646 28.9828 10.339 29.1063 10.0925 29.1581C9.84597 29.2098 9.58969 29.1873 9.356 29.0933C9.04257 28.9678 8.79169 28.7231 8.65847 28.4129C8.52522 28.1028 8.52052 27.7522 8.64532 27.4387L8.64932 27.4374ZM4.50268 36.784C4.51732 36.604 4.66668 35.2119 4.728 34.8601L11.016 35.3639L10.86 36.4893L8.58 36.284L8.516 37.0628L10.0093 38.3146C10.7507 38.9401 10.8907 39.6893 10.648 40.2066L9.68533 40.2252C9.81868 39.8799 9.61333 39.3761 9.31468 39.1146L8.208 38.1587C7.984 38.6693 7.38532 39.3214 6.29868 39.2334C5.212 39.1454 4.35868 38.5147 4.49868 36.7852L4.50268 36.784ZM4.72132 45.1319L10.6667 41.3227L10.7507 42.5452L9.36532 43.4014C9.42132 43.8988 9.48932 44.3987 9.56932 44.8919C9.64932 45.3854 9.74 45.8786 9.84268 46.3679L11.4307 46.7679L11.728 47.9226L4.87733 46.1613L4.72132 45.1319ZM10.0547 59.412C9.85377 59.1001 9.65688 58.785 9.464 58.4665L14.236 56.0999C13.7978 55.396 13.3893 54.6765 13.0107 53.9412L8.25068 56.2814C8.08177 55.9506 7.91732 55.6166 7.75732 55.2787L12.5187 52.9388C12.1631 52.1797 11.8387 51.4058 11.5453 50.6172L6.76932 52.9812C6.63512 52.6356 6.50577 52.2879 6.38132 51.9386L11.1813 49.5801L12.1147 49.1187C12.9787 51.7729 14.2165 54.2907 15.7907 56.596L14.8573 57.0561L10.0547 59.412ZM13.692 64.2667C13.3271 63.8892 13.059 63.4289 12.9104 62.9253C12.7618 62.4217 12.7372 61.8897 12.8387 61.3748L13.9547 61.6106C13.8643 61.955 13.863 62.3166 13.951 62.6618C14.0389 63.0066 14.2132 63.3235 14.4573 63.5827C15.3147 64.508 16.6533 64.4707 17.5733 63.6186C18.4933 62.7666 18.6213 61.4227 17.764 60.4973C17.5193 60.2268 17.2072 60.0259 16.8597 59.9153C16.5122 59.8045 16.1415 59.7877 15.7853 59.8667L15.6213 58.7534C16.1564 58.6778 16.7019 58.7355 17.2092 58.9217C17.7166 59.1078 18.1701 59.4164 18.5293 59.8201C19.856 61.2533 19.6947 63.2572 18.3693 64.4867C17.044 65.716 15.0187 65.7041 13.692 64.2667ZM18.4707 68.5748L22.128 63.3748L23.0333 64.0119L19.3773 69.2119L18.4707 68.5748ZM24.7373 72.4026L23.7827 71.84L24.9426 69.868L24.0747 69.3574C22.8454 68.6333 22.3746 67.5348 23.0253 66.4321C23.676 65.3295 24.8773 65.1094 26.1455 65.8548L27.9613 66.9214L24.7373 72.4026ZM32.4306 74.9106L30.1055 74.32C29.4068 74.1173 28.9255 73.7266 28.6774 73.2761C28.5805 73.1027 28.5205 72.9113 28.5016 72.7135C28.4826 72.516 28.5047 72.3166 28.5668 72.1279C28.7787 71.396 29.3119 71.1254 29.8332 71.0214C29.1894 70.5693 28.8119 70.0148 29.0574 69.1694C29.3732 68.0787 30.4413 67.7546 31.8026 68.1507L34.192 68.8453L32.4306 74.9106ZM40.0132 73.8374C39.7616 73.8374 39.5153 73.7626 39.306 73.6228C39.0966 73.4827 38.9332 73.2839 38.8369 73.0514C38.7405 72.8186 38.7153 72.5626 38.7644 72.3156C38.8135 72.0686 38.9348 71.8418 39.113 71.6637C39.2909 71.4856 39.5179 71.3641 39.7649 71.3152C40.0119 71.266 40.2681 71.2911 40.5005 71.3877C40.7332 71.484 40.9322 71.6471 41.0719 71.8566C41.2119 72.066 41.2868 72.3122 41.2868 72.5639C41.2875 72.7317 41.2553 72.8976 41.1917 73.0529C41.1283 73.208 41.0345 73.3489 40.9164 73.4677C40.7982 73.5865 40.6577 73.6808 40.5029 73.7452C40.3483 73.8095 40.1823 73.8426 40.0145 73.8426L40.0132 73.8374ZM52.5545 73.3706L51.1507 69.0014L49.2455 74.4347L48.1907 74.7014L46.2668 68.6972L47.3332 68.4305L48.7507 72.8414L50.6668 67.3587L51.6455 66.9587L53.5787 72.9732L52.5545 73.3706ZM60.1013 69.4586L58.7106 67.2119L58.1613 67.5521L57.6894 70.9333L56.5613 71.5881L57.212 67.7481L55.1639 67.0281C54.4439 66.7801 53.9455 66.7614 53.6332 67.1107L53.1226 66.284C53.7774 65.548 54.7013 65.6601 55.6481 66.0347L57.5145 66.7386L58.1668 66.3386L56.7839 64.1041L57.7055 63.4721L61.0145 68.8161L60.1013 69.4586ZM67.4119 62.808L64.0307 59.7041L65.0668 65.3732L64.2826 66.1295L59.6319 61.8628L60.4319 61.1027L63.8439 64.2361L62.8 58.5147L63.4532 57.6839L68.1068 61.9573L67.4119 62.808ZM72.6945 54.2667C72.6945 54.2667 68.3894 53.7973 67.6774 53.636L67.6639 53.6627C68.1974 54.1307 71.1706 57.352 71.1706 57.352L70.3707 58.7187L64.4826 56.2506L65.1068 55.2399L67.4961 56.2747C68.2519 56.6027 69.1574 56.9934 69.9333 57.388L69.9468 57.3613C69.3481 56.8199 66.1426 53.3121 66.1426 53.3121L66.56 52.4665C66.56 52.4665 71.2013 53.024 71.9932 53.2148L72.0026 53.1961C71.2693 52.7961 70.38 52.3161 69.6213 51.8866L67.3894 50.6159L67.7894 49.5386L73.3055 52.7788L72.6945 54.2667ZM75.3332 46.2747C74.9945 48.1973 73.3 49.2813 71.52 48.968C69.74 48.6548 68.5213 47.0374 68.8613 45.1146C69.2013 43.192 70.8945 42.1067 72.6745 42.4212C74.4545 42.7361 75.6681 44.3521 75.3332 46.2747Z" fill="#0F2D69"/>
</svg>
